<?xml version="1.0" encoding="UTF-8" standalone="no"?>
<!DOCTYPE svg PUBLIC "-//W3C//DTD SVG 1.1//EN" "http://www.w3.org/Graphics/SVG/1.1/DTD/svg11.dtd">
<!-- Created with Vectornator (http://vectornator.io/) -->
<svg height="100%" stroke-miterlimit="10" style="fill-rule:nonzero;clip-rule:evenodd;stroke-linecap:round;stroke-linejoin:round;" version="1.1" viewBox="0 0 137 137" width="100%" xml:space="preserve" xmlns="http://www.w3.org/2000/svg" xmlns:xlink="http://www.w3.org/1999/xlink">
<defs/>
<g id="Untitled">
<path d="M74.5596 29.4998C78.0594 30.2841 81.8195 33.997 84.0167 37.2919C86.2139 40.5867 88.0923 45.3003 87.743 49.269C87.3937 53.2378 84.7564 58.1241 81.921 61.1045C79.0856 64.0849 74.3039 66.7805 70.7306 67.1517C67.1573 67.5229 63.361 65.5813 60.4813 63.3318C57.6016 61.0822 54.4403 57.5777 53.4523 53.6545C52.4643 49.7313 53.1281 43.3949 54.5532 39.7927C55.9783 36.1905 58.2086 33.3915 62.0029 32.0412C65.7972 30.6909 74.4272 31.563 77.3189 31.6908C80.2107 31.8187 79.5151 32.7395 79.3533 32.8084M64.7226 29.9848C68.0958 28.9727 72.3339 30.2217 75.7723 32.0523C79.2107 33.8829 83.5223 37.3797 85.353 40.9683C87.1837 44.5569 87.6883 49.5447 86.7565 53.584C85.8247 57.6234 82.5788 62.7589 79.7622 65.2044C76.9456 67.65 73.4507 68.9571 69.857 68.2574C66.2633 67.5577 61.0074 64.0176 58.2 61.0062C55.3927 57.9948 53.4493 53.9891 53.0128 50.1891C52.5763 46.3891 53.75 41.3396 55.5811 38.2062C57.4122 35.0727 62.3835 32.5711 63.9993 31.3883C65.615 30.2055 65.3141 31.1532 65.2757 31.1094" fill="none" opacity="1" stroke="#ffffff" stroke-linecap="butt" stroke-linejoin="miter" stroke-width="1"/>
<path d="M43.4458 68.1212C54.6373 68.6902 67.4937 67.6868 95.2346 68.6661M41.8101 67.2458C55.7132 67.0291 68.1879 67.9599 96.3199 66.7473M96.8671 68.7392C96.1392 84.5481 94.5902 98.4033 94.1756 119.298M96.0464 67.5422C95.9307 83.8006 95.6894 99.8062 96.2407 121.326M96.5315 119.856C77.7873 120.347 57.6751 121.612 43.1899 121.216M95.7295 120.721C83.2331 121.462 73.4273 119.735 42.4397 120.026M43.9805 118.493C42.6779 101.756 42.5598 82.5 41.0077 66.4762M43.0967 121.33C41.8952 99.826 41.5192 79.1094 42.8927 68.0518" fill="none" opacity="1" stroke="#ffffff" stroke-linecap="butt" stroke-linejoin="miter" stroke-width="1"/>
<g opacity="1">
<path d="M69.0448 91.3182L72.9871 96.0479L71.3938 105.822L65.6339 97.8108" fill="#e64980" fill-rule="evenodd" opacity="1" stroke="#ffffff" stroke-linecap="butt" stroke-linejoin="miter" stroke-width="1"/>
<path d="M69.6198 90.4471C70.4661 92.5482 70.7163 95.0236 71.81 97.2738M69.3012 91.0307C69.5718 92.9275 70.4461 94.8807 71.1117 97.7497M71.8269 97.8859C71.0632 99.9259 69.552 102.499 69.0108 104.619M71.4012 97.9796C70.7977 99.874 70.1443 102.013 69.732 104.741M69.199 104.896C68.5719 101.905 68 100.115 66.7061 97.0698M69.5217 104.202C68.9777 103.047 67.6081 101.275 66.2623 97.9539M65.6752 97.7134C67.1768 95.9468 67.7628 93.7725 69.0027 91.4005M66.7557 97.7047C67.4545 94.8374 68.5094 92.4818 69.6027 91.0541" fill="none" opacity="1" stroke="#ffffff" stroke-linecap="butt" stroke-linejoin="miter" stroke-width="1"/>
</g>
<g opacity="1">
<path d="M66.8999 70.615L70.161 71.0137L73.107 96.8327L66.3925 97.1022" fill="#e64980" fill-rule="nonzero" opacity="1" stroke="#ffffff" stroke-linecap="butt" stroke-linejoin="miter" stroke-width="1"/>
<path d="M66.0992 69.3622C67.7699 69.0695 69.7174 69.327 71.499 68.8672M66.5428 68.7857C67.8112 69.0611 69.132 68.8295 71.8607 69.2527M72.2617 70.025C70.9333 78.6656 70.9268 89.4448 71.9929 97.3758M72.5253 69.039C72.4907 75.7115 72.9779 83.7126 72.3359 98.096M72.096 97.719C70.4517 98.0523 69.7117 97.8144 65.8249 97.2967M71.5816 97.8468C70.0849 97.3844 68.1394 97.5168 66.4805 97.4596M66.2504 97.8113C65.9132 87.0642 64.6642 75.7756 68.0548 70.7668M66.2276 97.4402C65.6659 86.295 66.5827 76.3565 67.1452 68.8519" fill="none" opacity="1" stroke="#ffffff" stroke-linecap="butt" stroke-linejoin="miter" stroke-width="1"/>
</g>
<path d="M81.6712 21.5099C82.9231 20.0385 84.8251 17.7537 86.6878 16.9905M81.247 21.6222C82.7961 20.4317 84.132 18.3455 86.0207 16.6104M84.0107 24.6967C85.8905 22.7391 87.1647 20.7578 89.0868 20.4723M84.8895 24.5676C85.5971 23.515 86.6685 22.526 88.5042 20.1516M88.4877 23.0864C86.5187 20.988 84.4138 18.3033 81.9147 17.2396M87.7341 22.2503C86.0899 20.4648 83.6622 18.8737 81.5475 16.8846M89.7794 18.3743C88.2046 17.2376 86.8818 16.5452 85.1748 14.6758M89.9122 18.7562C88.3754 17.3693 86.9717 15.8498 85.2098 14.8859" fill="none" opacity="1" stroke="#fab005" stroke-linecap="butt" stroke-linejoin="miter" stroke-width="0.5"/>
<path d="M81.7856 15.4439C82.2234 14.9922 83.6447 14.4254 84.6343 14.659C85.624 14.8925 87.0887 15.9953 87.7234 16.8452C88.3582 17.6952 88.4285 18.8214 88.4426 19.7587C88.4568 20.696 88.3992 21.7384 87.8084 22.4691C87.2177 23.1998 85.8853 24.2558 84.8981 24.1428C83.911 24.0298 82.7363 22.3586 81.8857 21.791C81.0351 21.2235 79.9065 21.4215 79.7945 20.7376C79.6825 20.0537 80.7763 18.412 81.2139 17.6878C81.6514 16.9635 82.0303 16.8671 82.4198 16.3921C82.8092 15.9172 83.3015 14.8298 83.5505 14.8381M82.8131 16.5658C83.5845 16.5981 86.8422 15.9451 87.7591 16.1724C88.6761 16.3997 88.2398 17.3957 88.315 17.9297C88.3902 18.4637 88.4364 18.4348 88.2104 19.3764C87.9843 20.318 87.5488 23.1189 86.9588 23.5791C86.3689 24.0393 85.4981 22.4767 84.6707 22.1378C83.8434 21.7988 82.5452 21.9523 81.9949 21.5455C81.4446 21.1388 81.5599 20.5371 81.369 19.6974C81.1781 18.8576 80.2854 16.9941 80.8496 16.5071C81.4139 16.0202 84.2959 16.8407 84.7544 16.7756C85.213 16.7105 83.8527 16.2238 83.601 16.1164" fill="none" opacity="1" stroke="#ffffff" stroke-linecap="butt" stroke-linejoin="miter" stroke-width="1"/>
<path d="M81.6972 20.7677C82.2974 21.5727 83.4697 24.9406 83.7961 26.4706C84.1226 28.0005 83.5578 29.3978 83.6559 29.9475M80.4047 22.9583C80.9401 23.4562 82.3942 24.1485 82.7858 24.9731C83.1774 25.7976 82.4055 26.8878 82.7544 27.9056" fill="none" opacity="1" stroke="#ffffff" stroke-linecap="butt" stroke-linejoin="miter" stroke-width="1"/>
<path d="M87.8961 21.8919C87.4357 22.4749 86.2403 24.327 86.3469 25.8889C86.4535 27.4509 88.3792 30.6565 88.5357 31.2637M89.9081 20.6702C89.7605 21.3882 89.0199 25.6472 88.671 27.0965C88.3221 28.5457 88.1062 28.8531 87.8147 29.3655" fill="none" opacity="1" stroke="#ffffff" stroke-linecap="butt" stroke-linejoin="miter" stroke-width="1"/>
<path d="M83.0473 26.2117C83.7978 26.3385 87.013 27.2516 87.6308 27.2721M81.6424 28.4186C82.2536 28.2063 86.2088 25.4837 86.8911 25.2987" fill="none" opacity="1" stroke="#ffffff" stroke-linecap="butt" stroke-linejoin="miter" stroke-width="1"/>
<path d="M83.5308 28.8236C83.2606 28.5546 83.4063 26.7896 83.2761 26.7288M85.5856 28.3411C85.0155 28.1351 82.1313 28.0384 82.0483 27.7295" fill="none" opacity="1" stroke="#ffffff" stroke-linecap="butt" stroke-linejoin="miter" stroke-width="1"/>
<path d="M82.5168 28.9262C83.1374 29.2043 86.0744 29.0137 86.7667 28.8649C87.459 28.7161 87.2279 28.1565 86.6707 28.0335C86.1135 27.9105 83.9563 27.953 83.4236 28.1271M84.1615 28.2521C84.7109 28.2876 85.8061 27.5759 86.0604 27.184C86.3146 26.7922 86.0985 25.5677 85.6869 25.9009C85.2752 26.234 84.2132 28.5131 83.5904 29.1829" fill="none" opacity="1" stroke="#ffffff" stroke-linecap="butt" stroke-linejoin="miter" stroke-width="1"/>
<path d="M84.678 29.8889C85.1839 30.0777 85.5716 29.9435 85.9538 29.8662C86.336 29.7889 86.5669 29.4267 86.9714 29.4253C87.3759 29.4239 88.2953 29.9654 88.3806 29.8577C88.4659 29.7499 87.4782 29.0541 87.4831 28.779C87.4881 28.5038 89.1816 27.912 88.4102 28.2068C87.6388 28.5016 83.5658 30.3472 82.8549 30.5479M83.5499 28.9576C84.5345 28.9251 87.8249 28.6065 88.2333 28.3578C88.6418 28.1092 85.9309 27.5741 86.0004 27.4655C86.0699 27.357 88.113 27.4835 88.6502 27.7065C89.1874 27.9295 89.0219 28.3605 89.2236 28.8036C89.4254 29.2467 90.9193 30.2219 89.8606 30.365C88.802 30.5082 83.9869 29.9009 82.8718 29.6623" fill="none" opacity="1" stroke="#ffffff" stroke-linecap="butt" stroke-linejoin="miter" stroke-width="1"/>
<path d="M9.04096 8.40849C46.1426 7.63381 80.7907 7.5284 125.057 11.3112M9.12623 10.3921C37.0137 9.33994 64.6065 9.99265 127.081 10.0903M125.722 11.6424C126.66 35.6155 128.269 61.2119 127.193 126.667M127.06 9.90822C126.968 41.989 127.803 72.0578 126.112 127.248M125.751 128.045C100.801 128.268 74.1108 127.651 8.80423 125.991M127.589 127.791C84.2489 124.992 39.3161 126.151 9.1725 126.593M11.0191 126.622C11.1368 85.4117 11.5585 46.1973 8.60043 11.5934M10.8455 126.432C10.2755 102.256 10.2725 75.8864 9.67283 9.17606" fill="none" opacity="1" stroke="#ffffff" stroke-linecap="butt" stroke-linejoin="miter" stroke-width="1"/>
</g>
</svg>
